%
M48
M72
T01C0.0320
T02C0.0350
T03C0.0420
%
T01
X7595Y7375
X8595Y7375
X9595Y7375
X18095Y7375
X19095Y7375
X20095Y7375
X28595Y7375
X29595Y7375
X30595Y7375
X39095Y7375
X40095Y7375
X41095Y7375
X41095Y21875
X40095Y21875
X39095Y21875
X30595Y21875
X29595Y21875
X28595Y21875
X20095Y21875
X19095Y21875
X18095Y21875
X9595Y21875
X8595Y21875
X7595Y21875
T02
X8595Y4375
X9595Y4375
X11595Y4375
X15595Y4375
X18595Y4375
X19595Y4375
X21595Y4375
X25595Y4375
X28595Y4375
X29595Y4375
X31595Y4375
X35595Y4375
X38595Y4375
X39595Y4375
X41095Y4375
X45095Y4375
X44595Y7375
X43595Y7375
X42595Y7375
X41095Y8875
X39595Y9875
X38595Y9875
X35595Y9875
X31595Y9875
X29595Y9875
X28595Y9875
X25595Y9875
X21595Y9875
X19595Y9875
X18595Y9875
X15595Y9875
X11595Y9875
X9595Y9875
X8595Y9875
X11095Y7375
X12095Y7375
X13095Y7375
X17095Y7375
X21595Y7375
X22595Y7375
X23595Y7375
X27595Y7375
X32095Y7375
X33095Y7375
X34095Y7375
X38095Y7375
X44595Y11375
X41095Y12875
X41095Y15875
X44595Y17875
X41095Y19875
X39595Y18875
X38595Y18875
X35595Y18875
X31595Y18875
X29595Y18875
X28595Y18875
X25595Y18875
X21595Y18875
X19595Y18875
X18595Y18875
X15595Y18875
X11595Y18875
X9595Y18875
X8595Y18875
X11095Y21875
X12095Y21875
X13095Y21875
X11595Y24375
X9595Y24375
X8595Y24375
X15595Y24375
X18595Y24375
X19595Y24375
X21595Y24375
X21595Y21875
X22595Y21875
X23595Y21875
X27595Y21875
X28595Y24375
X29595Y24375
X31595Y24375
X32095Y21875
X33095Y21875
X34095Y21875
X35595Y24375
X38595Y24375
X39595Y24375
X41095Y24375
X42595Y21875
X43595Y21875
X44595Y21875
X45095Y24375
X38095Y21875
X25595Y24375
X17095Y21875
T03
X9595Y14875
X9595Y13875
X43095Y13875
X43095Y14875
M30
