G75*
G70*
%OFA0B0*%
%FSLAX24Y24*%
%IPPOS*%
%LPD*%
%AMOC8*
5,1,8,0,0,1.08239X$1,22.5*
%
%ADD10C,0.0585*%
%ADD11R,0.0585X0.0585*%
%ADD12C,0.0540*%
%ADD13R,0.0690X0.0690*%
%ADD14C,0.0690*%
D10*
X008595Y004375D03*
X011595Y004375D03*
X015595Y004375D03*
X018595Y004375D03*
X021595Y004375D03*
X025595Y004375D03*
X028595Y004375D03*
X031595Y004375D03*
X035595Y004375D03*
X038595Y004375D03*
X041095Y004375D03*
X045095Y004375D03*
X044595Y007375D03*
X042595Y007375D03*
X041095Y008875D03*
X038595Y009875D03*
X035595Y009875D03*
X031595Y009875D03*
X028595Y009875D03*
X025595Y009875D03*
X021595Y009875D03*
X018595Y009875D03*
X015595Y009875D03*
X011595Y009875D03*
X008595Y009875D03*
X011095Y007375D03*
X013095Y007375D03*
X017095Y007375D03*
X021595Y007375D03*
X023595Y007375D03*
X027595Y007375D03*
X032095Y007375D03*
X034095Y007375D03*
X038095Y007375D03*
X044595Y011375D03*
X041095Y012875D03*
X041095Y015875D03*
X044595Y017875D03*
X041095Y019875D03*
X038595Y018875D03*
X035595Y018875D03*
X031595Y018875D03*
X028595Y018875D03*
X025595Y018875D03*
X021595Y018875D03*
X018595Y018875D03*
X015595Y018875D03*
X011595Y018875D03*
X008595Y018875D03*
X011095Y021875D03*
X013095Y021875D03*
X011595Y024375D03*
X008595Y024375D03*
X015595Y024375D03*
X018595Y024375D03*
X021595Y024375D03*
X021595Y021875D03*
X023595Y021875D03*
X027595Y021875D03*
X028595Y024375D03*
X025595Y024375D03*
X031595Y024375D03*
X032095Y021875D03*
X034095Y021875D03*
X035595Y024375D03*
X038595Y024375D03*
X041095Y024375D03*
X042595Y021875D03*
X044595Y021875D03*
X045095Y024375D03*
X038095Y021875D03*
X017095Y021875D03*
D11*
X019595Y024375D03*
X022595Y021875D03*
X019595Y018875D03*
X012095Y021875D03*
X009595Y024375D03*
X009595Y018875D03*
X009595Y009875D03*
X012095Y007375D03*
X009595Y004375D03*
X019595Y004375D03*
X022595Y007375D03*
X019595Y009875D03*
X029595Y009875D03*
X033095Y007375D03*
X029595Y004375D03*
X039595Y004375D03*
X043595Y007375D03*
X039595Y009875D03*
X039595Y018875D03*
X043595Y021875D03*
X039595Y024375D03*
X033095Y021875D03*
X029595Y024375D03*
X029595Y018875D03*
D12*
X029595Y021635D02*
X029595Y022115D01*
X030595Y022115D02*
X030595Y021635D01*
X028595Y021635D02*
X028595Y022115D01*
X020095Y022115D02*
X020095Y021635D01*
X019095Y021635D02*
X019095Y022115D01*
X018095Y022115D02*
X018095Y021635D01*
X009595Y021635D02*
X009595Y022115D01*
X008595Y022115D02*
X008595Y021635D01*
X007595Y021635D02*
X007595Y022115D01*
X007595Y007615D02*
X007595Y007135D01*
X008595Y007135D02*
X008595Y007615D01*
X009595Y007615D02*
X009595Y007135D01*
X018095Y007135D02*
X018095Y007615D01*
X019095Y007615D02*
X019095Y007135D01*
X020095Y007135D02*
X020095Y007615D01*
X028595Y007615D02*
X028595Y007135D01*
X029595Y007135D02*
X029595Y007615D01*
X030595Y007615D02*
X030595Y007135D01*
X039095Y007135D02*
X039095Y007615D01*
X040095Y007615D02*
X040095Y007135D01*
X041095Y007135D02*
X041095Y007615D01*
X041095Y021635D02*
X041095Y022115D01*
X040095Y022115D02*
X040095Y021635D01*
X039095Y021635D02*
X039095Y022115D01*
D13*
X043095Y014875D03*
X009595Y014875D03*
D14*
X009595Y013875D03*
X043095Y013875D03*
M02*
